
<svg xmlns="http://www.w3.org/2000/svg" width="18" height="18" data-name="Layer 2" viewBox="0 0 35 35"><path fill="#536471" d="M27.57 33.72H11a1.25 1.25 0 0 1 0-2.5h16.57a2.16 2.16 0 0 0 2.3-2 1.65 1.65 0 0 0-.2-.79 1.26 1.26 0 0 1 0-1 1.28 1.28 0 0 1 .77-.72 2 2 0 0 0 1.49-1.85 1.85 1.85 0 0 0-.58-1.3 1.27 1.27 0 0 1 0-1.79 1.83 1.83 0 0 0 .58-1.3 1.85 1.85 0 0 0-.58-1.31 1.22 1.22 0 0 1-.37-.89 1.26 1.26 0 0 1 .37-.89 1.85 1.85 0 0 0 .54-1.38 2.17 2.17 0 0 0-2.3-2h-6.8a1.24 1.24 0 0 1-1.08-.61 1.27 1.27 0 0 1 0-1.24s1.92-3.52 1-6.31a4.44 4.44 0 0 0-2.46-2.64c-1.12-.55-1.45-.44-1.46-.44s-.45.84-.45 3.91c0 5-6.12 12.62-6.38 12.94a1.24 1.24 0 0 1-1.75.19A1.25 1.25 0 0 1 10 18c1.62-2 5.82-7.95 5.82-11.37 0-2.74.12-5.09 1.64-6 1.28-.79 2.84-.19 3.89.37a6.87 6.87 0 0 1 3.76 4.19 10.36 10.36 0 0 1-.42 6.4h4.9a4.66 4.66 0 0 1 4.8 4.41 4.18 4.18 0 0 1-.62 2.2 4.21 4.21 0 0 1 0 4.4 4.15 4.15 0 0 1 .62 2.19 4.4 4.4 0 0 1-2.08 3.69 4.17 4.17 0 0 1 .06.71 4.65 4.65 0 0 1-4.8 4.53Z" class="color000 svgShape"/><path fill="#536471" d="M8.69 34.75H3.86A3.26 3.26 0 0 1 .61 31.5V20.75a3.26 3.26 0 0 1 3.25-3.25h4.83A3.26 3.26 0 0 1 12 20.75V31.5a3.26 3.26 0 0 1-3.31 3.25ZM3.86 20a.76.76 0 0 0-.75.75V31.5a.76.76 0 0 0 .75.75h4.83a.76.76 0 0 0 .76-.75V20.75a.76.76 0 0 0-.76-.75Z" class="color000 svgShape"/></svg>
